<?xml version="1.0" encoding="utf-8"?>
<!-- Generator: Adobe Illustrator 27.3.1, SVG Export Plug-In . SVG Version: 6.00 Build 0)  -->
<svg version="1.1" id="Layer_1" xmlns="http://www.w3.org/2000/svg" xmlns:xlink="http://www.w3.org/1999/xlink" x="0px" y="0px"
	 width="40px" height="80px" viewBox="0 0 40 80" style="enable-background:new 0 0 40 80;" xml:space="preserve">
<style type="text/css">
	.st0{fill:#3B8C6E;}
	.st1{fill:#777777;}
</style>
<polygon class="st0" points="15,55.4 20,41 25,55.4 40,55.4 28,64.8 32.7,79.1 20,70.6 7.3,79.1 12,64.8 0,55.4 "/>
<path class="st1" d="M40,15.4H25L20,1l-5,14.4H0l12,9.4L7.3,39.1L20,30.6l12.7,8.5l-4.6-14.3L40,15.4z M20,27.4l-7.8,5.2l2.8-8.8
	L7.8,18H17l3-8.8l3.1,8.8h9.2L25,23.8l2.8,8.8L20,27.4z"/>
</svg>
