<svg width="200" height="40" viewBox="0 0 200 40" fill="none" xmlns="http://www.w3.org/2000/svg">
<path d="M35 31.267C35 32.177 34.242 32.913 33.306 32.913H6.694C5.758 32.913 5 32.176 5 31.267V16.628C5 15.718 5.758 14.98 6.694 14.98H33.307C34.243 14.98 35.001 15.718 35.001 16.628L35 31.267Z" stroke="#1A1A1A" stroke-width="1.5" stroke-linecap="round" stroke-linejoin="round"/>
<path d="M27 32.894H13V11.398L20 7L27 11.398V32.894Z" stroke="#1A1A1A" stroke-width="1.5" stroke-linecap="round" stroke-linejoin="round"/>
<path d="M18 26.996H22M22 20.996C22 22.101 21.105 22.996 20 22.996C18.895 22.996 18 22.101 18 20.996C18 19.891 18.895 18.996 20 18.996C21.105 18.996 22 19.891 22 20.996Z" stroke="#00B6ED" stroke-width="1.5" stroke-linecap="round" stroke-linejoin="round"/>
<path d="M63 13.999C63 15.656 61.657 17 60 17C58.343 17 57 15.656 57 13.999C57 12.342 58.343 11 60 11C61.657 11 63 12.342 63 13.999Z" stroke="#00B6ED" stroke-width="1.5" stroke-linecap="round" stroke-linejoin="round"/>
<path d="M53 28V23.355C53 22.055 54.14 21 55.547 21H64.454C65.86 21 67 22.055 67 23.355V28M75 20C75 28.284 68.284 35 60 35C51.716 35 45 28.284 45 20C45 11.716 51.715 5 60 5C68.285 5 75 11.716 75 20Z" stroke="#1A1A1A" stroke-width="1.5" stroke-linecap="round" stroke-linejoin="round"/>
<path d="M94.254 6H88.508C88.162 6 87.832 6.066 87.531 6.184C87.231 6.304 86.961 6.476 86.734 6.689C86.507 6.902 86.324 7.156 86.196 7.437C86.069 7.719 85.999 8.029 85.999 8.353V24.308C85.999 24.632 86.069 24.943 86.196 25.224C86.323 25.505 86.507 25.759 86.734 25.972C86.961 26.185 87.231 26.357 87.531 26.476C87.831 26.596 88.161 26.662 88.508 26.662H96.526L100 33.662L103.473 26.662H111.492C111.838 26.662 112.168 26.596 112.469 26.476C112.769 26.357 113.039 26.185 113.266 25.972C113.493 25.759 113.677 25.505 113.803 25.224C113.93 24.943 114 24.632 114 24.308V8.353C114 8.029 113.93 7.719 113.803 7.437C113.676 7.156 113.493 6.902 113.266 6.689C113.039 6.476 112.769 6.304 112.469 6.184C112.169 6.065 111.839 6 111.492 6H94.254Z" stroke="#1A1A1A" stroke-width="1.5" stroke-linecap="round" stroke-linejoin="round"/>
<path d="M96 12.8C96.282 11.945 96.773 11.264 97.474 10.758C98.175 10.253 99.026 10 100.028 10C100.69 10 101.325 10.138 101.934 10.415C102.543 10.692 103.038 11.096 103.423 11.626C103.808 12.156 104 12.78 104 13.5C104 14.035 103.912 14.514 103.736 14.937C103.561 15.36 103.299 15.737 102.948 16.067C102.597 16.397 102.159 16.69 101.634 16.942C101.216 17.146 100.933 17.328 100.787 17.489C100.641 17.65 100.564 17.861 100.554 18.124L100.539 18.722H98.408L98.394 17.876C98.384 17.438 98.428 17.076 98.526 16.789C98.622 16.502 98.805 16.242 99.072 16.008C99.34 15.775 99.731 15.536 100.248 15.293C100.764 15.04 101.135 14.78 101.365 14.512C101.593 14.244 101.707 13.907 101.707 13.498C101.707 13.196 101.632 12.939 101.481 12.725C101.33 12.511 101.126 12.351 100.868 12.244C100.61 12.137 100.33 12.084 100.028 12.084C99.531 12.084 99.138 12.196 98.846 12.419C98.554 12.642 98.31 12.998 98.117 13.484L96 12.798V12.8ZM99.474 22.793C99.095 22.793 98.771 22.659 98.503 22.392C98.236 22.124 98.101 21.801 98.101 21.422C98.101 21.043 98.235 20.719 98.503 20.452C98.77 20.185 99.095 20.051 99.474 20.051C99.853 20.051 100.177 20.185 100.445 20.452C100.713 20.72 100.847 21.043 100.847 21.422C100.847 21.801 100.714 22.124 100.445 22.392C100.178 22.659 99.855 22.793 99.474 22.793Z" fill="#00B6ED"/>
<path d="M130 23.529V29.233C130 30.431 129.105 31.403 128 31.403C126.895 31.402 126 30.431 126 29.233V23.528M146.013 14.665C148.104 15.178 149.65 16.998 149.65 19.163C149.65 21.328 148.104 23.147 146.013 23.66M144.704 8C143.982 8 143.396 8.587 143.396 9.31V10.001L131.677 14.687H125.555C124.144 14.687 123 15.834 123 17.247V20.622C123 22.036 124.144 23.183 125.555 23.183H131.676L143.395 27.869V28.559C143.395 29.284 143.981 29.87 144.703 29.87C145.425 29.87 146.012 29.283 146.012 28.559V9.311C146.012 8.587 145.426 8 144.703 8H144.704Z" stroke="#1A1A1A" stroke-width="1.5" stroke-linecap="round" stroke-linejoin="round"/>
<path d="M152 14.417L156.202 11.529M153 19.529H157M152 24.521L155.362 27.529" stroke="#00B6ED" stroke-width="1.5" stroke-linecap="round" stroke-linejoin="round"/>
<path d="M195 20C195 28.284 188.284 35 180 35C171.716 35 165 28.284 165 20C165 11.716 171.716 5 180 5C188.284 5 195 11.716 195 20Z" stroke="#1A1A1A" stroke-width="1.5" stroke-linecap="round" stroke-linejoin="round"/>
<path d="M176 20L180 31L184 20M176 20L180 9L184 20M176 20H184" stroke="#00B6ED" stroke-width="1.5" stroke-linecap="round" stroke-linejoin="round"/>
</svg>
