<svg width="80" height="40" viewBox="0 0 80 40" fill="none" xmlns="http://www.w3.org/2000/svg">
<rect width="40" height="40" fill="#FEE500"/>
<path fill-rule="evenodd" clip-rule="evenodd" d="M19.7692 11.3421C15.1323 11.3421 11 14.5504 11 18.5078C11 20.9683 12.5985 23.1386 15.0323 24.4288L14.0082 28.1878C13.9174 28.5206 14.2959 28.7852 14.5862 28.5929L19.0754 25.6155C19.4538 25.6519 19.839 25.6729 19.7692 25.6729C25.3287 25.6729 29 22.4652 29 18.5078C29 14.5504 25.3287 11.3421 19.7692 11.3421Z" fill="black" fill-opacity="0.902"/>
<rect width="40" height="40" transform="translate(40)" fill="#03C75A"/>
<path d="M62.729 20.535L57.046 12.4H52.335V27.6H57.271V19.465L62.954 27.6H67.665V12.4H62.729V20.535Z" fill="white"/>
</svg>
