<svg width="1920" height="579" viewBox="0 0 1920 579" fill="none" xmlns="http://www.w3.org/2000/svg">
<g opacity="0.5">
<path fill-rule="evenodd" clip-rule="evenodd" d="M146.197 238.082C142.436 238.082 139.39 235.039 139.39 231.284C139.39 227.53 142.436 224.487 146.197 224.487C149.957 224.487 153 227.53 153 231.284C153 235.039 149.957 238.082 146.197 238.082ZM146.197 206.597C142.436 206.597 139.39 203.552 139.39 199.798C139.39 196.043 142.436 192.999 146.197 192.999C149.957 192.999 153 196.043 153 199.798C153 203.552 149.957 206.597 146.197 206.597ZM146.197 175.11C142.436 175.11 139.39 172.063 139.39 168.298C139.39 164.537 142.436 161.486 146.197 161.486C149.957 161.486 153 164.537 153 168.298C153 172.063 149.957 175.11 146.197 175.11ZM146.197 143.625C142.436 143.625 139.39 140.576 139.39 136.813C139.39 133.05 142.436 130 146.197 130C149.957 130 153 133.05 153 136.813C153 140.576 149.957 143.625 146.197 143.625ZM109.603 269.596C105.844 269.596 102.8 266.545 102.8 262.784C102.8 259.019 105.844 255.972 109.603 255.972C113.36 255.972 116.406 259.019 116.406 262.784C116.406 266.545 113.36 269.596 109.603 269.596ZM109.603 238.082C105.844 238.082 102.8 235.039 102.8 231.284C102.8 227.53 105.844 224.487 109.603 224.487C113.36 224.487 116.406 227.53 116.406 231.284C116.406 235.039 113.36 238.082 109.603 238.082ZM109.603 206.597C105.844 206.597 102.8 203.552 102.8 199.798C102.8 196.043 105.844 192.999 109.603 192.999C113.36 192.999 116.406 196.043 116.406 199.798C116.406 203.552 113.36 206.597 109.603 206.597ZM109.603 175.11C105.844 175.11 102.8 172.063 102.8 168.298C102.8 164.537 105.844 161.486 109.603 161.486C113.36 161.486 116.406 164.537 116.406 168.298C116.406 172.063 113.36 175.11 109.603 175.11ZM109.603 143.625C105.844 143.625 102.8 140.576 102.8 136.813C102.8 133.05 105.844 130 109.603 130C113.36 130 116.406 133.05 116.406 136.813C116.406 140.576 113.36 143.625 109.603 143.625ZM73 269.596C69.2357 269.596 66.1829 266.545 66.1829 262.784C66.1829 259.019 69.2357 255.972 73 255.972C76.7609 255.972 79.8171 259.019 79.8171 262.784C79.8171 266.545 76.7609 269.596 73 269.596ZM73 238.082C69.2357 238.082 66.1829 235.039 66.1829 231.284C66.1829 227.53 69.2357 224.487 73 224.487C76.7609 224.487 79.8171 227.53 79.8171 231.284C79.8171 235.039 76.7609 238.082 73 238.082ZM73 206.597C69.2357 206.597 66.1829 203.552 66.1829 199.798C66.1829 196.043 69.2357 192.999 73 192.999C76.7609 192.999 79.8171 196.043 79.8171 199.798C79.8171 203.552 76.7609 206.597 73 206.597ZM73 175.11C69.2357 175.11 66.1829 172.063 66.1829 168.298C66.1829 164.537 69.2357 161.486 73 161.486C76.7609 161.486 79.8171 164.537 79.8171 168.298C79.8171 172.063 76.7609 175.11 73 175.11ZM73 143.625C69.2357 143.625 66.1829 140.576 66.1829 136.813C66.1829 133.05 69.2357 130 73 130C76.7609 130 79.8171 133.05 79.8171 136.813C79.8171 140.576 76.7609 143.625 73 143.625ZM36.3928 269.596C32.6336 269.596 29.5936 266.545 29.5936 262.784C29.5936 259.019 32.6336 255.972 36.3928 255.972C40.1562 255.972 43.1997 259.019 43.1997 262.784C43.1997 266.545 40.1562 269.596 36.3928 269.596ZM36.3928 238.082C32.6336 238.082 29.5936 235.039 29.5936 231.284C29.5936 227.53 32.6336 224.487 36.3928 224.487C40.1562 224.487 43.1997 227.53 43.1997 231.284C43.1997 235.039 40.1562 238.082 36.3928 238.082ZM36.3928 206.597C32.6336 206.597 29.5936 203.552 29.5936 199.798C29.5936 196.043 32.6336 192.999 36.3928 192.999C40.1562 192.999 43.1997 196.043 43.1997 199.798C43.1997 203.552 40.1562 206.597 36.3928 206.597ZM36.3928 175.11C32.6336 175.11 29.5936 172.063 29.5936 168.298C29.5936 164.537 32.6336 161.486 36.3928 161.486C40.1562 161.486 43.1997 164.537 43.1997 168.298C43.1997 172.063 40.1562 175.11 36.3928 175.11ZM36.3928 143.625C32.6336 143.625 29.5936 140.576 29.5936 136.813C29.5936 133.05 32.6336 130 36.3928 130C40.1562 130 43.1997 133.05 43.1997 136.813C43.1997 140.576 40.1562 143.625 36.3928 143.625ZM-0.196523 269.596C-3.95656 269.596 -7 266.545 -7 262.784C-7 259.019 -3.95656 255.972 -0.196523 255.972C3.56352 255.972 6.61036 259.019 6.61036 262.784C6.61036 266.545 3.56352 269.596 -0.196523 269.596ZM-0.196523 238.082C-3.95656 238.082 -7 235.039 -7 231.284C-7 227.53 -3.95656 224.487 -0.196523 224.487C3.56352 224.487 6.61036 227.53 6.61036 231.284C6.61036 235.039 3.56352 238.082 -0.196523 238.082ZM-0.196523 206.597C-3.95656 206.597 -7 203.552 -7 199.798C-7 196.043 -3.95656 192.999 -0.196523 192.999C3.56352 192.999 6.61036 196.043 6.61036 199.798C6.61036 203.552 3.56352 206.597 -0.196523 206.597ZM-0.196523 175.11C-3.95656 175.11 -7 172.063 -7 168.298C-7 164.537 -3.95656 161.486 -0.196523 161.486C3.56352 161.486 6.61036 164.537 6.61036 168.298C6.61036 172.063 3.56352 175.11 -0.196523 175.11ZM-0.196523 143.625C-3.95656 143.625 -7 140.576 -7 136.813C-7 133.05 -3.95656 130 -0.196523 130C3.56352 130 6.61036 133.05 6.61036 136.813C6.61036 140.576 3.56352 143.625 -0.196523 143.625ZM146.197 255.972C149.957 255.972 153 259.019 153 262.784C153 266.545 149.957 269.596 146.197 269.596C142.436 269.596 139.39 266.545 139.39 262.784C139.39 259.019 142.436 255.972 146.197 255.972Z" fill="#DDDAE3"/>
<path fill-rule="evenodd" clip-rule="evenodd" d="M807.446 606.446H733.892H661V532.892C661 492.931 693.931 460 733.892 460C747.952 460 760.512 463.584 770.669 469.842C782.15 463.584 794.71 460 807.446 460C848.73 460 881 492.931 881 532.892V606.446H807.446Z" fill="#E3EAFB" style="mix-blend-mode:darken"/>
<path fill-rule="evenodd" clip-rule="evenodd" d="M1425 109.763C1425 149.097 1455.75 179.842 1495.08 179.842C1533.15 179.842 1565.16 149.097 1565.16 109.763C1565.16 71.6904 1533.15 39.6846 1495.08 39.6846C1455.75 39.6846 1425 71.6904 1425 109.763ZM1565.16 -30.3942C1565.16 -68.4666 1533.15 -100.473 1495.08 -100.473C1455.75 -100.473 1425 -68.4666 1425 -30.3942C1425 8.93966 1455.75 39.6846 1495.08 39.6846C1533.15 39.6846 1565.16 8.93966 1565.16 -30.3942ZM1565.16 -170.552C1565.16 -208.625 1533.15 -240 1495.08 -240C1455.75 -240 1425 -208.625 1425 -170.552C1425 -131.218 1455.75 -100.473 1495.08 -100.473C1533.15 -100.473 1565.16 -131.218 1565.16 -170.552ZM1635.24 -100.473C1673.31 -100.473 1705.32 -131.218 1705.32 -170.552C1705.32 -208.625 1673.31 -240 1635.24 -240C1595.9 -240 1565.16 -208.625 1565.16 -170.552C1565.16 -131.218 1595.9 -100.473 1635.24 -100.473ZM1775.39 -100.473C1813.47 -100.473 1845.47 -131.218 1845.47 -170.552C1845.47 -208.625 1813.47 -240 1775.39 -240C1736.06 -240 1705.32 -208.625 1705.32 -170.552C1705.32 -131.218 1736.06 -100.473 1775.39 -100.473ZM1915.55 -100.473C1953.63 -100.473 1985 -131.218 1985 -170.552C1985 -208.625 1953.63 -240 1915.55 -240C1876.22 -240 1845.47 -208.625 1845.47 -170.552C1845.47 -131.218 1876.22 -100.473 1915.55 -100.473ZM1845.47 -30.3942C1845.47 8.93966 1876.22 39.6846 1915.55 39.6846C1953.63 39.6846 1985 8.93966 1985 -30.3942C1985 -68.4666 1953.63 -100.473 1915.55 -100.473C1876.22 -100.473 1845.47 -68.4666 1845.47 -30.3942ZM1845.47 109.763C1845.47 149.097 1876.22 179.842 1915.55 179.842C1953.63 179.842 1985 149.097 1985 109.763C1985 71.6904 1953.63 39.6846 1915.55 39.6846C1876.22 39.6846 1845.47 71.6904 1845.47 109.763ZM1845.47 249.921C1845.47 289.255 1876.22 320 1915.55 320C1953.63 320 1985 289.255 1985 249.921C1985 211.848 1953.63 179.842 1915.55 179.842C1876.22 179.842 1845.47 211.848 1845.47 249.921ZM1845.47 390.079C1845.47 429.413 1876.22 460.158 1915.55 460.158C1953.63 460.158 1985 429.413 1985 390.079C1985 352.006 1953.63 320 1915.55 320C1876.22 320 1845.47 352.006 1845.47 390.079ZM1775.39 320C1736.06 320 1705.32 352.006 1705.32 390.079C1705.32 429.413 1736.06 460.158 1775.39 460.158C1813.47 460.158 1845.47 429.413 1845.47 390.079C1845.47 352.006 1813.47 320 1775.39 320ZM1635.24 320C1595.9 320 1565.16 352.006 1565.16 390.079C1565.16 429.413 1595.9 460.158 1635.24 460.158C1673.31 460.158 1705.32 429.413 1705.32 390.079C1705.32 352.006 1673.31 320 1635.24 320ZM1705.32 249.921C1705.32 211.848 1673.31 179.842 1635.24 179.842C1595.9 179.842 1565.16 211.848 1565.16 249.921C1565.16 289.255 1595.9 320 1635.24 320C1673.31 320 1705.32 289.255 1705.32 249.921ZM1495.08 179.842C1455.75 179.842 1425 211.848 1425 249.921C1425 289.255 1455.75 320 1495.08 320C1533.15 320 1565.16 289.255 1565.16 249.921C1565.16 211.848 1533.15 179.842 1495.08 179.842ZM1635.24 179.842C1673.31 179.842 1705.32 149.097 1705.32 109.763C1705.32 71.6904 1673.31 39.6846 1635.24 39.6846C1595.9 39.6846 1565.16 71.6904 1565.16 109.763C1565.16 149.097 1595.9 179.842 1635.24 179.842ZM1705.32 -30.3942C1705.32 -68.4666 1673.31 -100.473 1635.24 -100.473C1595.9 -100.473 1565.16 -68.4666 1565.16 -30.3942C1565.16 8.93966 1595.9 39.6846 1635.24 39.6846C1673.31 39.6846 1705.32 8.93966 1705.32 -30.3942ZM1775.39 39.6846C1813.47 39.6846 1845.47 8.93966 1845.47 -30.3942C1845.47 -68.4666 1813.47 -100.473 1775.39 -100.473C1736.06 -100.473 1705.32 -68.4666 1705.32 -30.3942C1705.32 8.93966 1736.06 39.6846 1775.39 39.6846ZM1705.32 109.763C1705.32 149.097 1736.06 179.842 1775.39 179.842C1813.47 179.842 1845.47 149.097 1845.47 109.763C1845.47 71.6904 1813.47 39.6846 1775.39 39.6846C1736.06 39.6846 1705.32 71.6904 1705.32 109.763ZM1705.32 249.921C1705.32 289.255 1736.06 320 1775.39 320C1813.47 320 1845.47 289.255 1845.47 249.921C1845.47 211.848 1813.47 179.842 1775.39 179.842C1736.06 179.842 1705.32 211.848 1705.32 249.921Z" fill="#EFEEF3"/>
<path fill-rule="evenodd" clip-rule="evenodd" d="M1275.82 -16C1298.37 -16 1316 1.98935 1316 23.8192C1316 46.3719 1298.37 64 1275.82 64H1236V-16H1275.82Z" fill="#CEF4FF"/>
<path fill-rule="evenodd" clip-rule="evenodd" d="M1650 595.727V515L1730 595.727H1650ZM1650 435L1730 515H1650V435Z" fill="#DEF8F7"/>
</g>
</svg>
